# xmcd CD database file
#
# Track frame offsets:
#	150
#	13230
#	27225
#	39867
#	52255
#	65282
#	80490
#	92517
#	104652
#	113695
#	128165
#	141922
#	153737
#	163265
#	173560
#
# Disc length: 2461 seconds
#
# Revision: 2
# Processed by: cddbd v1.5.2PL0 Copyright (c) Steve Scherf et al.
# Submitted via: CDex 2.16
#
DISCID=c8099b0f
DTITLE=Little Walter - Confessin' The Blues
DYEAR=1997
DGENRE=Blues
TTITLE0=It Ain't Right
TTITLE1=Rocker
TTITLE2=I Got To Find My Baby
TTITLE3=Lights Out
TTITLE4=One More Chance With You
TTITLE5=Crazy Legs
TTITLE6=Temperature
TTITLE7=I Got To Go
TTITLE8=Crazy Mixed Up World
TTITLE9=Quarter To Twelve
TTITLE10=Confessin' The Blues
TTITLE11=The Toddle
TTITLE12=Up The Line
TTITLE13=Rock Bottom
TTITLE14=Mean Old Frisco
EXTD=CHD 9366\n\nSubmitted 6/19/97\n[Jmccoy@efn.org] YEAR: 1997
EXTT0=
EXTT1=
EXTT2=
EXTT3=
EXTT4=
EXTT5=
EXTT6=
EXTT7=
EXTT8=
EXTT9=
EXTT10=
EXTT11=
EXTT12=
EXTT13=
EXTT14=
PLAYORDER=
